<svg width="92" height="92" fill="none" xmlns="http://www.w3.org/2000/svg"><circle cx="46.351" cy="45.663" r="45.371" fill="#001E35"/><path d="M58.13 36.394c0 1.394-.43 3.055-1.219 4.902-.782 1.833-1.88 3.763-3.125 5.673-2.362 3.623-5.18 7.06-7.2 9.495-2.138-2.551-4.92-6.148-7.224-9.823-1.213-1.936-2.276-3.867-3.043-5.66-.774-1.811-1.202-3.384-1.238-4.63-.18-6.29 5.12-11.481 11.524-11.481 6.365 0 11.524 5.16 11.524 11.524z" stroke="#73C5FF" stroke-width="3"/><circle cx="46.604" cy="36.762" r="4.227" stroke="#73C5FF" stroke-width="3"/><path d="M51.54 51.174h8.326c.478 0 .92.252 1.16.664l3.217 5.478M34.32 63.32l6.283-10.09a1.346 1.346 0 0 0-1.142-2.056h-5.87c-.469 0-.905.245-1.149.646l-5.837 9.593c-.546.897.1 2.045 1.15 2.045h37.744c1.04 0 1.687-1.13 1.16-2.027l-2.416-4.115m0 0h-9.451c-.492 0-.945.268-1.18.7l-2.804 5.12" stroke="#73C5FF" stroke-width="3"/></svg>